<mxfile host="app.diagrams.net" modified="2023-11-29T06:45:54.102Z" agent="Mozilla/5.0 (Macintosh; Intel Mac OS X 10_15_7) AppleWebKit/605.1.15 (KHTML, like Gecko) Version/17.1 Safari/605.1.15" version="22.1.4" etag="VndgCRkzGMLCDwKawi8Y" type="github">
  <diagram name="Seite-1" id="EcgJo7NvLU2FG93w8Emp">
    <mxGraphModel>
      <root>
        <mxCell id="0" />
        <mxCell id="1" parent="0" />
      </root>
    </mxGraphModel>
  </diagram>
</mxfile>
